<svg width="30" height="20" viewBox="0 0 30 20" fill="none" xmlns="http://www.w3.org/2000/svg">
<path d="M0 0.75V19.25H8.9375C9.76563 19.25 15.4688 19.082 15.4688 13.875C15.4688 10.6211 13.2305 9.51563 12.0938 9.1875C12.9297 8.79297 14.5938 7.85547 14.5938 5.34375C14.5938 3.94531 14.3945 0.75 8.6875 0.75H0ZM20.375 2.46875V4.15625H27.2812V2.46875H20.375ZM4.0625 3.90625H7.875C8.23438 3.90625 10.6562 3.71484 10.6562 6.03125C10.6562 8.01172 8.90625 8.21875 8.1875 8.21875H4.0625V3.90625ZM24 5.6875C18.7773 5.6875 17.6875 10.2227 17.6875 12.1875C17.6875 18.0195 22.4688 18.6875 24 18.6875C28.1289 18.6875 29.3008 16.0156 29.7812 14.5312H26.7812C26.6641 14.9141 25.7891 16.1562 24.125 16.1562C21.3359 16.1562 21.0938 13.9766 21.0938 13H29.9688C30.1484 9.625 28.6719 5.6875 24 5.6875ZM23.9062 8.21875C24.7383 8.21875 25.4102 8.46094 25.8125 8.90625C26.2148 9.35547 26.5117 10.0117 26.5938 10.875H21.0938C21.1094 10.6367 21.1641 10.3633 21.25 10.0625C21.3359 9.75391 21.4688 9.46094 21.6875 9.1875C21.9062 8.91797 22.2109 8.68359 22.5625 8.5C22.9219 8.3125 23.3672 8.21875 23.9062 8.21875ZM4.0625 11H8.46875C9.34375 11 11.4062 11.1367 11.4062 13.6562C11.4062 16.0977 8.80859 16.0938 8.40625 16.0938H4.0625V11Z" fill="#DEDEDE"/>
</svg>
