<svg width="37" height="38" viewBox="0 0 37 38" fill="none" xmlns="http://www.w3.org/2000/svg">
<path d="M9.35166 10.8713C9.00409 10.6766 8.58373 10.6863 8.24482 10.8969C7.90592 11.1075 7.69839 11.488 7.69839 11.8988V26.6806C7.69839 27.3252 8.20053 27.8476 8.81994 27.8476C9.43935 27.8476 9.94148 27.3252 9.94148 26.6806V13.8526L18.0082 18.3722C18.3402 18.5582 18.7397 18.5582 19.0717 18.3722L27.1384 13.8526V26.6806C27.1384 27.3252 27.6406 27.8476 28.26 27.8476C28.8794 27.8476 29.3815 27.3252 29.3815 26.6806V11.8988C29.3815 11.488 29.174 11.1075 28.8351 10.8969C28.4962 10.6863 28.0758 10.6766 27.7283 10.8713L18.54 16.0193L9.35166 10.8713Z" fill="#C9C9C9"/>
<path fill-rule="evenodd" clip-rule="evenodd" d="M26.4814 6.02003C21.1976 5.52846 15.8823 5.52846 10.5986 6.02003L8.32957 6.23113C5.89566 6.45757 3.92911 8.39231 3.57562 10.9082C2.83091 16.2084 2.83091 21.5931 3.57562 26.8932C3.92911 29.4091 5.89566 31.3439 8.32957 31.5703L10.5986 31.7814C15.8823 32.273 21.1976 32.273 26.4814 31.7814L28.7504 31.5703C31.1843 31.3439 33.1508 29.4091 33.5043 26.8932C34.249 21.5931 34.249 16.2084 33.5043 10.9082C33.1508 8.39231 31.1843 6.45757 28.7504 6.23113L26.4814 6.02003ZM10.7984 8.34473C15.9492 7.86553 21.1308 7.86553 26.2816 8.34473L28.5506 8.55583C29.9505 8.68607 31.0815 9.79883 31.2849 11.2458C31.9981 16.3221 31.9981 21.4793 31.2849 26.5556C31.0815 28.0026 29.9505 29.1154 28.5506 29.2456L26.2816 29.4567C21.1308 29.9359 15.9492 29.9359 10.7984 29.4567L8.52933 29.2456C7.12947 29.1154 5.99842 28.0026 5.79511 26.5556C5.08186 21.4793 5.08186 16.3221 5.79511 11.2458C5.99842 9.79883 7.12947 8.68607 8.52933 8.55583L10.7984 8.34473Z" fill="#C9C9C9"/>
</svg>
