<svg width="37" height="38" viewBox="0 0 37 38" fill="none" xmlns="http://www.w3.org/2000/svg">
<path d="M9.35166 10.8713C9.00409 10.6766 8.58373 10.6863 8.24482 10.897C7.90592 11.1076 7.69839 11.4881 7.69839 11.8988V26.6807C7.69839 27.3252 8.20053 27.8477 8.81994 27.8477C9.43935 27.8477 9.94148 27.3252 9.94148 26.6807V13.8526L18.0082 18.3723C18.3402 18.5583 18.7397 18.5583 19.0717 18.3723L27.1384 13.8526V26.6807C27.1384 27.3252 27.6406 27.8477 28.26 27.8477C28.8794 27.8477 29.3815 27.3252 29.3815 26.6807V11.8988C29.3815 11.4881 29.174 11.1076 28.8351 10.897C28.4962 10.6863 28.0758 10.6766 27.7283 10.8713L18.54 16.0194L9.35166 10.8713Z" fill="#C9C9C9"/>
<path fill-rule="evenodd" clip-rule="evenodd" d="M26.4814 6.02008C21.1976 5.52851 15.8823 5.52851 10.5986 6.02008L8.32957 6.23117C5.89566 6.45761 3.92911 8.39236 3.57562 10.9083C2.83091 16.2084 2.83091 21.5931 3.57562 26.8933C3.92911 29.4092 5.89566 31.3439 8.32957 31.5704L10.5986 31.7815C15.8823 32.273 21.1976 32.273 26.4814 31.7815L28.7504 31.5704C31.1843 31.3439 33.1508 29.4092 33.5043 26.8933C34.249 21.5931 34.249 16.2084 33.5043 10.9083C33.1508 8.39236 31.1843 6.45761 28.7504 6.23117L26.4814 6.02008ZM10.7984 8.34478C15.9492 7.86557 21.1308 7.86557 26.2816 8.34478L28.5506 8.55588C29.9505 8.68611 31.0815 9.79888 31.2849 11.2459C31.9981 16.3222 31.9981 21.4794 31.2849 26.5556C31.0815 28.0027 29.9505 29.1154 28.5506 29.2457L26.2816 29.4568C21.1308 29.936 15.9492 29.936 10.7984 29.4568L8.52933 29.2457C7.12947 29.1154 5.99842 28.0027 5.79511 26.5556C5.08186 21.4794 5.08186 16.3222 5.79511 11.2459C5.99842 9.79888 7.12947 8.68611 8.52933 8.55588L10.7984 8.34478Z" fill="#C9C9C9"/>
</svg>
